ffmpeg started on 2025-06-03 at 20:20:40
Report written to "D:\Convert\FFMetrics\reports\ssim_report-6.txt"
Log level: 32
Command line:
ffmpeg -hide_banner -nostdin -i "G:\\\xc0\xed\xe8\xec\xe5\\\xce\xed\xe3\xee\xe8\xed\xe3\xe8\\!_36_\xce\xf1\xe5\xed\xfc_2024\\DreamCast\\\xc1\xe0\xf8\xed\xff \xc1\xee\xe3\xe0\\\xd2\xc2-2\\[DC] Kami no Tou - Ouji no Kikan - 26_Telegram_HEVC.mkv" -i "G:\\\xc0\xed\xe8\xec\xe5\\\xce\xed\xe3\xee\xe8\xed\xe3\xe8\\!_36_\xce\xf1\xe5\xed\xfc_2024\\DreamCast\\\xc1\xe0\xf8\xed\xff \xc1\xee\xe3\xe0\\\xd2\xc2-2\\[DC] Kami no Tou - Ouji no Kikan - 26_Telegram.mp4" -lavfi "[0:v]settb=AVTB,setpts=PTS-STARTPTS,format=pix_fmts=yuv420p10,fps=24000/1001,scale=1920:1080:flags=bicubic[main];[1:v]settb=AVTB,setpts=PTS-STARTPTS,format=pix_fmts=yuv420p,fps=24000/1001,scale=1920:1080:flags=bicubic[ref];[main][ref]ssim=eof_action=endall:stats_file='D\\:/Convert/FFMetrics/logs/ssim_logfile-6.txt'" -f null -
Input #0, matroska,webm, from 'G:\Аниме\Онгоинги\!_36_Осень_2024\DreamCast\Башня Бога\ТВ-2\[DC] Kami no Tou - Ouji no Kikan - 26_Telegram_HEVC.mkv':
  Metadata:
    COMPATIBLE_BRANDS: isomiso2avc1mp41
    MAJOR_BRAND     : isom
    MINOR_VERSION   : 512
    ENCODER         : Lavf61.7.100
  Duration: 00:24:04.91, start: -0.021000, bitrate: 1021 kb/s
  Stream #0:0: Video: hevc (Main 10), yuv420p10le(tv, bt709, progressive), 1920x1080 [SAR 1:1 DAR 16:9], 23.98 fps, 23.98 tbr, 1k tbn (default)
      Metadata:
        HANDLER_NAME    : VideoHandler
        VENDOR_ID       : [0][0][0][0]
        ENCODER         : Lavc61.19.100 libx265
        BPS             : 823906
        DURATION        : 00:24:04.693708333
        NUMBER_OF_FRAMES: 34638
        NUMBER_OF_BYTES : 148786545
        _STATISTICS_WRITING_APP: mkvpropedit v66.0.0 ('Josie') 64-bit
        _STATISTICS_WRITING_DATE_UTC: 2025-05-30 07:00:53
        _STATISTICS_TAGS: BPS DURATION NUMBER_OF_FRAMES NUMBER_OF_BYTES
  Stream #0:1: Audio: aac (LC), 48000 Hz, stereo, fltp (default)
      Metadata:
        HANDLER_NAME    : SoundHandler
        VENDOR_ID       : [0][0][0][0]
        ENCODER         : Lavc61.19.100 aac
        BPS             : 193404
        DURATION        : 00:24:04.906000000
        NUMBER_OF_FRAMES: 67731
        NUMBER_OF_BYTES : 34931437
        _STATISTICS_WRITING_APP: mkvpropedit v66.0.0 ('Josie') 64-bit
        _STATISTICS_WRITING_DATE_UTC: 2025-05-30 07:00:53
        _STATISTICS_TAGS: BPS DURATION NUMBER_OF_FRAMES NUMBER_OF_BYTES
Input #1, mov,mp4,m4a,3gp,3g2,mj2, from 'G:\Аниме\Онгоинги\!_36_Осень_2024\DreamCast\Башня Бога\ТВ-2\[DC] Kami no Tou - Ouji no Kikan - 26_Telegram.mp4':
  Metadata:
    major_brand     : isom
    minor_version   : 512
    compatible_brands: isomiso2avc1mp41
    encoder         : Lavf61.1.100
  Duration: 00:24:04.86, start: 0.000000, bitrate: 3479 kb/s
  Stream #1:0[0x1](und): Video: h264 (High) (avc1 / 0x31637661), yuv420p(tv, bt709, progressive), 1920x1080 [SAR 1:1 DAR 16:9], 3332 kb/s, 23.98 fps, 23.98 tbr, 24k tbn (default)
      Metadata:
        handler_name    : VideoHandler
        vendor_id       : [0][0][0][0]
        encoder         : Lavc61.3.100 h264_qsv
  Stream #1:1[0x2](und): Audio: aac (HE-AACv2) (mp4a / 0x6134706D), 48000 Hz, stereo, fltp, 144 kb/s (default)
      Metadata:
        handler_name    : SoundHandler
        vendor_id       : [0][0][0][0]
Stream mapping:
  Stream #0:0 (hevc) -> settb:default
  Stream #1:0 (h264) -> settb:default
  ssim:default -> Stream #0:0 (wrapped_avframe)
  Stream #0:1 -> #0:1 (aac (native) -> pcm_s16le (native))
Output #0, null, to 'pipe:':
  Metadata:
    COMPATIBLE_BRANDS: isomiso2avc1mp41
    MAJOR_BRAND     : isom
    MINOR_VERSION   : 512
    encoder         : Lavf61.7.100
  Stream #0:0: Video: wrapped_avframe, yuv420p10le(tv, bt709, progressive), 1920x1080 [SAR 1:1 DAR 16:9], q=2-31, 200 kb/s, 23.98 fps, 23.98 tbn
      Metadata:
        encoder         : Lavc61.19.100 wrapped_avframe
  Stream #0:1: Audio: pcm_s16le, 48000 Hz, stereo, s16, 1536 kb/s (default)
      Metadata:
        HANDLER_NAME    : SoundHandler
        VENDOR_ID       : [0][0][0][0]
        _STATISTICS_TAGS: BPS DURATION NUMBER_OF_FRAMES NUMBER_OF_BYTES
        BPS             : 193404
        DURATION        : 00:24:04.906000000
        NUMBER_OF_FRAMES: 67731
        NUMBER_OF_BYTES : 34931437
        _STATISTICS_WRITING_APP: mkvpropedit v66.0.0 ('Josie') 64-bit
        _STATISTICS_WRITING_DATE_UTC: 2025-05-30 07:00:53
        encoder         : Lavc61.19.100 pcm_s16le
frame=  189 fps=0.0 q=-0.0 size=N/A time=00:00:07.88 bitrate=N/A speed=15.2x    frame=  391 fps=380 q=-0.0 size=N/A time=00:00:16.30 bitrate=N/A speed=15.8x    frame=  627 fps=404 q=-0.0 size=N/A time=00:00:26.15 bitrate=N/A speed=16.8x    frame=  855 fps=414 q=-0.0 size=N/A time=00:00:35.66 bitrate=N/A speed=17.3x    frame= 1089 fps=423 q=-0.0 size=N/A time=00:00:45.42 bitrate=N/A speed=17.6x    frame= 1335 fps=431 q=-0.0 size=N/A time=00:00:55.68 bitrate=N/A speed=  18x    frame= 1582 fps=438 q=-0.0 size=N/A time=00:01:05.98 bitrate=N/A speed=18.3x    frame= 1801 fps=436 q=-0.0 size=N/A time=00:01:15.11 bitrate=N/A speed=18.2x    frame= 1996 fps=430 q=-0.0 size=N/A time=00:01:23.24 bitrate=N/A speed=17.9x    frame= 2231 fps=433 q=-0.0 size=N/A time=00:01:33.05 bitrate=N/A speed=18.1x    frame= 2453 fps=432 q=-0.0 size=N/A time=00:01:42.31 bitrate=N/A speed=  18x    frame= 2723 fps=440 q=-0.0 size=N/A time=00:01:53.57 bitrate=N/A speed=18.3x    frame= 3006 fps=449 q=-0.0 size=N/A time=00:02:05.37 bitrate=N/A speed=18.7x    frame= 3275 fps=453 q=-0.0 size=N/A time=00:02:16.59 bitrate=N/A speed=18.9x    frame= 3533 fps=457 q=-0.0 size=N/A time=00:02:27.35 bitrate=N/A speed=19.1x    frame= 3777 fps=458 q=-0.0 size=N/A time=00:02:37.53 bitrate=N/A speed=19.1x    frame= 4056 fps=462 q=-0.0 size=N/A time=00:02:49.16 bitrate=N/A speed=19.3x    frame= 4295 fps=463 q=-0.0 size=N/A time=00:02:59.13 bitrate=N/A speed=19.3x    frame= 4566 fps=466 q=-0.0 size=N/A time=00:03:10.44 bitrate=N/A speed=19.4x    frame= 4808 fps=465 q=-0.0 size=N/A time=00:03:20.53 bitrate=N/A speed=19.4x    frame= 5050 fps=466 q=-0.0 size=N/A time=00:03:30.62 bitrate=N/A speed=19.4x    frame= 5297 fps=466 q=-0.0 size=N/A time=00:03:40.92 bitrate=N/A speed=19.4x    frame= 5554 fps=468 q=-0.0 size=N/A time=00:03:51.64 bitrate=N/A speed=19.5x    frame= 5821 fps=470 q=-0.0 size=N/A time=00:04:02.78 bitrate=N/A speed=19.6x    frame= 6030 fps=467 q=-0.0 size=N/A time=00:04:11.50 bitrate=N/A speed=19.5x    frame= 6289 fps=469 q=-0.0 size=N/A time=00:04:22.30 bitrate=N/A speed=19.6x    frame= 6575 fps=472 q=-0.0 size=N/A time=00:04:34.23 bitrate=N/A speed=19.7x    frame= 6857 fps=474 q=-0.0 size=N/A time=00:04:45.99 bitrate=N/A speed=19.8x    frame= 7128 fps=476 q=-0.0 size=N/A time=00:04:57.29 bitrate=N/A speed=19.9x    frame= 7370 fps=476 q=-0.0 size=N/A time=00:05:07.39 bitrate=N/A speed=19.9x    frame= 7595 fps=474 q=-0.0 size=N/A time=00:05:16.77 bitrate=N/A speed=19.8x    frame= 7845 fps=475 q=-0.0 size=N/A time=00:05:27.20 bitrate=N/A speed=19.8x    frame= 8140 fps=478 q=-0.0 size=N/A time=00:05:39.50 bitrate=N/A speed=19.9x    frame= 8432 fps=481 q=-0.0 size=N/A time=00:05:51.68 bitrate=N/A speed=  20x    frame= 8715 fps=482 q=-0.0 size=N/A time=00:06:03.48 bitrate=N/A speed=20.1x    frame= 8972 fps=483 q=-0.0 size=N/A time=00:06:14.20 bitrate=N/A speed=20.1x    frame= 9247 fps=484 q=-0.0 size=N/A time=00:06:25.67 bitrate=N/A speed=20.2x    frame= 9519 fps=485 q=-0.0 size=N/A time=00:06:37.02 bitrate=N/A speed=20.2x    frame= 9800 fps=487 q=-0.0 size=N/A time=00:06:48.74 bitrate=N/A speed=20.3x    frame=10085 fps=489 q=-0.0 size=N/A time=00:07:00.62 bitrate=N/A speed=20.4x    frame=10380 fps=490 q=-0.0 size=N/A time=00:07:12.93 bitrate=N/A speed=20.5x    frame=10666 fps=492 q=-0.0 size=N/A time=00:07:24.86 bitrate=N/A speed=20.5x    frame=10947 fps=493 q=-0.0 size=N/A time=00:07:36.58 bitrate=N/A speed=20.6x    frame=11243 fps=495 q=-0.0 size=N/A time=00:07:48.92 bitrate=N/A speed=20.6x    frame=11517 fps=496 q=-0.0 size=N/A time=00:08:00.35 bitrate=N/A speed=20.7x    frame=11804 fps=497 q=-0.0 size=N/A time=00:08:12.32 bitrate=N/A speed=20.7x    frame=12096 fps=499 q=-0.0 size=N/A time=00:08:24.50 bitrate=N/A speed=20.8x    frame=12371 fps=500 q=-0.0 size=N/A time=00:08:35.97 bitrate=N/A speed=20.8x    frame=12657 fps=501 q=-0.0 size=N/A time=00:08:47.90 bitrate=N/A speed=20.9x    frame=12931 fps=501 q=-0.0 size=N/A time=00:08:59.33 bitrate=N/A speed=20.9x    frame=13210 fps=502 q=-0.0 size=N/A time=00:09:10.96 bitrate=N/A speed=20.9x    frame=13432 fps=501 q=-0.0 size=N/A time=00:09:20.22 bitrate=N/A speed=20.9x    frame=13706 fps=501 q=-0.0 size=N/A time=00:09:31.65 bitrate=N/A speed=20.9x    frame=13986 fps=502 q=-0.0 size=N/A time=00:09:43.33 bitrate=N/A speed=20.9x    frame=14290 fps=503 q=-0.0 size=N/A time=00:09:56.01 bitrate=N/A speed=  21x    frame=14547 fps=504 q=-0.0 size=N/A time=00:10:06.73 bitrate=N/A speed=  21x    frame=14820 fps=504 q=-0.0 size=N/A time=00:10:18.11 bitrate=N/A speed=  21x    frame=15042 fps=503 q=-0.0 size=N/A time=00:10:27.37 bitrate=N/A speed=  21x    frame=15319 fps=503 q=-0.0 size=N/A time=00:10:38.92 bitrate=N/A speed=  21x    frame=15614 fps=504 q=-0.0 size=N/A time=00:10:51.23 bitrate=N/A speed=  21x    frame=15901 fps=505 q=-0.0 size=N/A time=00:11:03.20 bitrate=N/A speed=21.1x    frame=16201 fps=507 q=-0.0 size=N/A time=00:11:15.71 bitrate=N/A speed=21.1x    frame=16503 fps=508 q=-0.0 size=N/A time=00:11:28.31 bitrate=N/A speed=21.2x    frame=16796 fps=509 q=-0.0 size=N/A time=00:11:40.53 bitrate=N/A speed=21.2x    frame=17090 fps=509 q=-0.0 size=N/A time=00:11:52.79 bitrate=N/A speed=21.2x    frame=17380 fps=510 q=-0.0 size=N/A time=00:12:04.89 bitrate=N/A speed=21.3x    frame=17640 fps=510 q=-0.0 size=N/A time=00:12:15.73 bitrate=N/A speed=21.3x    frame=17895 fps=510 q=-0.0 size=N/A time=00:12:26.37 bitrate=N/A speed=21.3x    frame=18166 fps=510 q=-0.0 size=N/A time=00:12:37.67 bitrate=N/A speed=21.3x    frame=18432 fps=510 q=-0.0 size=N/A time=00:12:48.76 bitrate=N/A speed=21.3x    frame=18706 fps=510 q=-0.0 size=N/A time=00:13:00.19 bitrate=N/A speed=21.3x    frame=18992 fps=511 q=-0.0 size=N/A time=00:13:12.12 bitrate=N/A speed=21.3x    frame=19291 fps=512 q=-0.0 size=N/A time=00:13:24.59 bitrate=N/A speed=21.4x    frame=19583 fps=513 q=-0.0 size=N/A time=00:13:36.77 bitrate=N/A speed=21.4x    frame=19883 fps=514 q=-0.0 size=N/A time=00:13:49.28 bitrate=N/A speed=21.4x    frame=20156 fps=514 q=-0.0 size=N/A time=00:14:00.67 bitrate=N/A speed=21.4x    frame=20447 fps=515 q=-0.0 size=N/A time=00:14:12.81 bitrate=N/A speed=21.5x    frame=20730 fps=515 q=-0.0 size=N/A time=00:14:24.61 bitrate=N/A speed=21.5x    frame=21003 fps=515 q=-0.0 size=N/A time=00:14:36.00 bitrate=N/A speed=21.5x    frame=21296 fps=516 q=-0.0 size=N/A time=00:14:48.22 bitrate=N/A speed=21.5x    frame=21570 fps=516 q=-0.0 size=N/A time=00:14:59.64 bitrate=N/A speed=21.5x    frame=21860 fps=517 q=-0.0 size=N/A time=00:15:11.74 bitrate=N/A speed=21.5x    frame=22112 fps=516 q=-0.0 size=N/A time=00:15:22.25 bitrate=N/A speed=21.5x    frame=22381 fps=516 q=-0.0 size=N/A time=00:15:33.47 bitrate=N/A speed=21.5x    frame=22646 fps=516 q=-0.0 size=N/A time=00:15:44.52 bitrate=N/A speed=21.5x    frame=22922 fps=516 q=-0.0 size=N/A time=00:15:56.03 bitrate=N/A speed=21.5x    frame=23194 fps=517 q=-0.0 size=N/A time=00:16:07.38 bitrate=N/A speed=21.5x    frame=23428 fps=516 q=-0.0 size=N/A time=00:16:17.14 bitrate=N/A speed=21.5x    frame=23702 fps=516 q=-0.0 size=N/A time=00:16:28.57 bitrate=N/A speed=21.5x    frame=23960 fps=516 q=-0.0 size=N/A time=00:16:39.33 bitrate=N/A speed=21.5x    frame=24228 fps=516 q=-0.0 size=N/A time=00:16:50.50 bitrate=N/A speed=21.5x    frame=24520 fps=517 q=-0.0 size=N/A time=00:17:02.68 bitrate=N/A speed=21.5x    frame=24783 fps=517 q=-0.0 size=N/A time=00:17:13.65 bitrate=N/A speed=21.5x    frame=25072 fps=517 q=-0.0 size=N/A time=00:17:25.71 bitrate=N/A speed=21.6x    frame=25354 fps=517 q=-0.0 size=N/A time=00:17:37.47 bitrate=N/A speed=21.6x    frame=25635 fps=518 q=-0.0 size=N/A time=00:17:49.19 bitrate=N/A speed=21.6x    frame=25917 fps=518 q=-0.0 size=N/A time=00:18:00.95 bitrate=N/A speed=21.6x    frame=26216 fps=519 q=-0.0 size=N/A time=00:18:13.42 bitrate=N/A speed=21.6x    frame=26498 fps=519 q=-0.0 size=N/A time=00:18:25.18 bitrate=N/A speed=21.6x    frame=26795 fps=519 q=-0.0 size=N/A time=00:18:37.57 bitrate=N/A speed=21.7x    frame=27074 fps=520 q=-0.0 size=N/A time=00:18:49.21 bitrate=N/A speed=21.7x    frame=27349 fps=520 q=-0.0 size=N/A time=00:19:00.68 bitrate=N/A speed=21.7x    frame=27644 fps=520 q=-0.0 size=N/A time=00:19:12.98 bitrate=N/A speed=21.7x    frame=27916 fps=520 q=-0.0 size=N/A time=00:19:24.32 bitrate=N/A speed=21.7x    frame=28182 fps=520 q=-0.0 size=N/A time=00:19:35.42 bitrate=N/A speed=21.7x    frame=28450 fps=520 q=-0.0 size=N/A time=00:19:46.60 bitrate=N/A speed=21.7x    frame=28760 fps=521 q=-0.0 size=N/A time=00:19:59.53 bitrate=N/A speed=21.7x    frame=29039 fps=521 q=-0.0 size=N/A time=00:20:11.16 bitrate=N/A speed=21.7x    frame=29325 fps=521 q=-0.0 size=N/A time=00:20:23.09 bitrate=N/A speed=21.7x    frame=29605 fps=522 q=-0.0 size=N/A time=00:20:34.77 bitrate=N/A speed=21.8x    frame=29897 fps=522 q=-0.0 size=N/A time=00:20:46.95 bitrate=N/A speed=21.8x    frame=30174 fps=522 q=-0.0 size=N/A time=00:20:58.50 bitrate=N/A speed=21.8x    frame=30438 fps=522 q=-0.0 size=N/A time=00:21:09.51 bitrate=N/A speed=21.8x    frame=30722 fps=522 q=-0.0 size=N/A time=00:21:21.36 bitrate=N/A speed=21.8x    frame=30997 fps=522 q=-0.0 size=N/A time=00:21:32.83 bitrate=N/A speed=21.8x    frame=31254 fps=522 q=-0.0 size=N/A time=00:21:43.55 bitrate=N/A speed=21.8x    frame=31457 fps=521 q=-0.0 size=N/A time=00:21:52.01 bitrate=N/A speed=21.7x    frame=31616 fps=519 q=-0.0 size=N/A time=00:21:58.65 bitrate=N/A speed=21.7x    frame=31775 fps=518 q=-0.0 size=N/A time=00:22:05.28 bitrate=N/A speed=21.6x    frame=31947 fps=516 q=-0.0 size=N/A time=00:22:12.45 bitrate=N/A speed=21.5x    frame=32107 fps=514 q=-0.0 size=N/A time=00:22:19.12 bitrate=N/A speed=21.5x    frame=32289 fps=513 q=-0.0 size=N/A time=00:22:26.72 bitrate=N/A speed=21.4x    frame=32459 fps=512 q=-0.0 size=N/A time=00:22:33.81 bitrate=N/A speed=21.3x    frame=32602 fps=510 q=-0.0 size=N/A time=00:22:39.77 bitrate=N/A speed=21.3x    frame=32766 fps=508 q=-0.0 size=N/A time=00:22:46.61 bitrate=N/A speed=21.2x    frame=32932 fps=507 q=-0.0 size=N/A time=00:22:53.53 bitrate=N/A speed=21.1x    frame=33068 fps=505 q=-0.0 size=N/A time=00:22:59.21 bitrate=N/A speed=21.1x    frame=33238 fps=503 q=-0.0 size=N/A time=00:23:06.30 bitrate=N/A speed=  21x    frame=33480 fps=503 q=-0.0 size=N/A time=00:23:16.39 bitrate=N/A speed=  21x    frame=33734 fps=503 q=-0.0 size=N/A time=00:23:26.98 bitrate=N/A speed=  21x    frame=34037 fps=504 q=-0.0 size=N/A time=00:23:39.62 bitrate=N/A speed=  21x    frame=34317 fps=504 q=-0.0 size=N/A time=00:23:51.30 bitrate=N/A speed=  21x    frame=34551 fps=504 q=-0.0 size=N/A time=00:24:01.06 bitrate=N/A speed=  21x    [Parsed_ssim_10 @ 000002c8d46e5680] SSIM Y:0.994961 (22.976698) U:0.994593 (22.670779) V:0.994648 (22.714557) All:0.994848 (22.879923)
[out#0/null @ 000002c8d1dd4440] video:14884KiB audio:270924KiB subtitle:0KiB other streams:0KiB global headers:0KiB muxing overhead: unknown
frame=34638 fps=504 q=-0.0 Lsize=N/A time=00:24:04.69 bitrate=N/A speed=  21x    
